<svg width="141" height="18" viewBox="0 0 141 18" fill="none" xmlns="http://www.w3.org/2000/svg">
<path fill-rule="evenodd" clip-rule="evenodd" d="M37.1365 0H14.5366C11.4135 0 8.51754 1.72914 7.06956 4.50709L0 17.915H22.4863C25.4958 17.915 28.2215 16.2425 29.6127 13.578L33.0197 7.00158H22.7702L16.2685 10.7433H21.8617L20.4989 13.6346H11.2715L15.5871 5.49921C16.0414 4.64882 16.9215 4.13858 17.8584 4.13858H30.0385L37.1365 0Z" fill="black"/>
<path fill-rule="evenodd" clip-rule="evenodd" d="M47.3852 0.11377H39.2652L29.7539 17.887H37.874L47.3852 0.11377Z" fill="black"/>
<path fill-rule="evenodd" clip-rule="evenodd" d="M79.271 0.141732L69.7314 18H60.1917L62.4347 13.748H53.037L57.8636 10.8567H63.9678L67.5168 4.30867H56.4724L51.5322 13.663C50.1126 16.3276 47.3586 18 44.3207 18H40.2891L47.8981 3.9685C49.2325 1.50236 51.7877 0 54.5985 0L79.271 0.141732Z" fill="black"/>
<path fill-rule="evenodd" clip-rule="evenodd" d="M107.747 3.74174L100.223 18H90.9956L97.8097 5.27244C98.0368 4.84725 97.7245 4.30867 97.2418 4.30867H88.3552L81.1153 18H72.1719L81.9387 0L105.561 0.0566964C107.434 0.0283499 108.627 2.06929 107.747 3.74174Z" fill="black"/>
<path fill-rule="evenodd" clip-rule="evenodd" d="M109.198 17.972L116.239 4.64918H108.602L110.845 0.14209H140.003L132.905 4.39406H125.211L118.113 17.9437L109.198 17.972Z" fill="black"/>
</svg>
