<svg width="96" height="28" viewBox="0 0 96 28" fill="none" xmlns="http://www.w3.org/2000/svg">
<path d="M57.5355 11.7021C56.9417 12.0955 56.3173 12.4401 55.6683 12.7325C54.9284 12.9933 54.1676 13.1902 53.3943 13.3211C53.0661 13.3794 51.6778 13.5688 51.6668 13.5735C51.3056 13.6303 50.9115 13.6919 50.4105 13.7581C49.7823 13.8465 49.0348 13.957 48.0344 14.1163L47.7204 14.1684C46.2681 14.3452 44.8437 14.7041 43.4802 15.2367C42.9404 15.4373 42.4124 15.6686 41.8988 15.9294L41.8202 15.9736L41.2847 16.2781C40.845 16.5306 40.1462 16.9361 39.5274 17.2407C39.4122 17.3094 39.2843 17.3537 39.1514 17.3711C39.0186 17.3885 38.8836 17.3784 38.7548 17.3417C38.6222 17.3222 38.4949 17.2762 38.3803 17.2066C38.2657 17.137 38.1661 17.045 38.0873 16.9361C37.6476 16.4059 37.1686 15.7495 36.8828 15.3424C36.7258 15.1215 36.6017 14.9542 36.5279 14.8438L36.4698 14.7775C36.1051 14.3238 35.7123 13.8937 35.2935 13.4899C34.2693 12.4485 33.1185 11.5408 31.8684 10.7884L31.6093 10.6117C30.7566 10.061 30.1064 9.65074 29.5803 9.31937L28.5485 8.62981C28.5485 8.62981 27.3456 7.8787 27.0692 7.68304C26.4163 7.24737 25.8021 6.75585 25.2334 6.21397C24.7599 5.6876 24.3298 5.12347 23.9472 4.52714C23.8938 4.43404 23.9911 4.30622 24.0791 4.23995C24.1486 4.19231 24.2325 4.17055 24.3162 4.17841C24.3449 4.18489 24.3707 4.20036 24.39 4.22259C24.39 4.24942 24.4686 4.31569 24.5471 4.41195C24.7968 4.71649 25.315 5.34767 25.6841 5.73585C26.3675 6.38143 27.1239 6.94438 27.9376 7.41321L28.0868 7.50631C28.258 7.62465 28.9129 7.97969 29.1861 8.12329C29.8708 8.47201 30.6922 8.82547 31.4397 9.13475C32.1872 9.44403 33.0023 9.7391 33.5912 10.0436L33.6917 10.091C34.5797 10.5741 35.426 11.1309 36.2217 11.7557C37.0354 12.3192 37.8817 12.8335 38.7563 13.2958C39.2699 13.5832 39.8574 13.7091 40.443 13.6572C41.4303 13.5936 42.4127 13.4682 43.3844 13.2816C44.3644 13.0399 45.3623 12.8779 46.3682 12.7972H46.4781C47.2574 12.7724 48.0375 12.7898 48.8149 12.8492C49.6372 12.8942 50.4614 12.8942 51.2837 12.8492C51.7041 12.8333 52.1235 12.7954 52.54 12.7356L52.7159 12.7135C53.6529 12.6186 54.5754 12.4125 55.4641 12.0997C55.9573 11.9056 56.6859 11.5348 57.0346 11.3581L57.2544 11.2476C57.2814 11.2381 57.3107 11.2381 57.3377 11.2476C57.4198 11.2734 57.4889 11.3299 57.5308 11.4054C57.5842 11.4764 57.6188 11.6437 57.545 11.7052L57.5355 11.7021ZM95.4976 25.921L91.0234 1.16453C90.9859 0.958732 90.8769 0.772991 90.7159 0.640363C90.5548 0.507735 90.3522 0.436823 90.144 0.440249H84.1748C83.1037 0.440249 83.0017 0.467074 82.6546 1.07143L82.4709 1.42962L71.4339 20.8384L67.0367 13.8954L76.42 2.31801C76.7385 2.00291 76.9426 1.5895 76.9995 1.14401C76.9995 0.62329 76.7356 0.446562 75.5861 0.446562H70.6455C69.9027 0.446562 69.832 0.490745 69.2227 1.23554L60.5304 11.9545L62.3269 1.9898C62.3897 1.75585 62.4307 1.51655 62.4494 1.27499C62.4887 0.59489 62.1825 0.440249 61.0486 0.440249H57.0519C55.7343 0.440249 55.6605 0.47654 55.4265 1.76415L53.7979 10.8768C53.2451 4.2794 48.3124 0 40.8858 0C35.2904 0 30.6184 2.41268 27.8811 6.3402C28.0382 6.44592 28.2062 6.55322 28.3821 6.65579L28.5533 6.76151C28.6679 6.83568 29.2599 7.17178 29.563 7.32642C30.2179 7.65621 31.0094 8.01441 31.7616 8.30159L31.8135 8.32368C32.5613 8.59342 33.2951 8.90099 34.0121 9.24521L34.1 9.28939H34.1251C34.8859 8.39322 35.8355 7.67816 36.905 7.19595C37.9746 6.71373 39.1374 6.47641 40.3095 6.50115C43.8712 6.50115 46.3305 8.59194 46.7954 11.8756C47.4016 11.8756 48.0878 11.8977 48.8071 11.9325H48.8731C49.6504 11.9687 50.5157 11.9687 51.2538 11.9325C51.6391 11.9208 52.0235 11.8871 52.405 11.8315L52.6013 11.8046C53.4658 11.7229 54.3171 11.5348 55.1359 11.2445C55.5757 11.063 56.2996 10.7064 56.6388 10.5391L56.7959 10.4586L56.8398 10.4366L56.9199 10.3971C57.1092 10.3202 57.3171 10.302 57.5167 10.345C57.6811 10.3823 57.836 10.4538 57.9712 10.5549C58.1065 10.656 58.2191 10.7845 58.3019 10.932C58.4526 11.1641 58.5097 11.4452 58.4616 11.7181C58.4134 11.9909 58.2637 12.2352 58.0428 12.4011C57.3903 12.835 56.7027 13.2129 55.9871 13.5309C55.1969 13.8094 54.3847 14.0205 53.5592 14.1621C53.3252 14.2031 52.6798 14.2946 52.0171 14.3877L51.8113 14.4146C51.4548 14.4761 51.0512 14.5329 50.5408 14.6087C49.9488 14.6923 49.2013 14.798 48.1852 14.9574L47.8868 15.0095C47.3639 15.1026 46.9446 15.1672 46.5959 15.2351C45.7181 18.6024 42.8457 20.8037 39.094 20.8037C34.8397 20.8037 32.1464 17.9634 32.393 13.766C32.4229 13.2718 32.4965 12.7813 32.6128 12.3001C32.2987 12.0792 31.914 11.8267 31.4177 11.4969L31.1586 11.3202C30.3059 10.7648 29.6651 10.3592 29.1516 10.0373C28.7119 9.76751 28.3664 9.54659 28.0711 9.34462L27.8874 9.25941C27.3205 8.90752 26.7708 8.5588 26.5698 8.42625C25.8721 7.95717 25.2154 7.42928 24.6068 6.8483C24.0847 6.26667 23.612 5.64226 23.1934 4.98159C23.0568 4.73891 23.0177 4.45299 23.0839 4.18228C23.1502 3.91157 23.3169 3.6765 23.5499 3.52514C23.6838 3.42596 23.8364 3.35522 23.9984 3.31724C24.1604 3.27926 24.3284 3.27483 24.4921 3.30423C24.7037 3.3447 24.8972 3.45128 25.0449 3.60877C25.0678 3.63013 25.0884 3.65394 25.1062 3.67978L25.1329 3.71449L25.2475 3.85178C25.4846 4.14212 25.9856 4.73385 26.3279 5.10467C26.6001 5.38207 26.8936 5.63744 27.2058 5.86839L27.8905 2.00242L27.991 1.28287C28.0711 0.629603 27.7241 0.448137 26.5776 0.448137H22.4663C21.1487 0.448137 21.0749 0.484432 20.8409 1.77204L19.3662 10.091H9.89339L11.3507 2.00242C11.4134 1.76683 11.4544 1.52598 11.4732 1.28287C11.5141 0.602777 11.2063 0.448137 10.0599 0.448137H5.97674C4.65914 0.448137 4.58534 0.484432 4.35134 1.77204L0.08605 25.3908L0.00281736 26.1056C-0.0333025 26.7857 0.269791 26.9182 1.38166 26.9182H5.46478C6.78237 26.9182 6.85618 26.9182 7.09017 25.6291L8.84591 15.9436H18.3156L16.6195 25.3908C16.5545 25.6242 16.5135 25.8637 16.497 26.1056C16.4609 26.7857 16.8834 26.9182 18.0345 26.9182H21.9857C23.3033 26.9182 23.3818 26.9182 23.6142 25.6291L25.3009 16.2734C25.9165 22.9465 31.1115 27.3585 38.7972 27.3585C43.7377 27.3585 47.769 25.506 50.4843 22.0376C51.2369 21.0551 51.8696 19.9856 52.3688 18.8518L51.1957 25.3908L51.1172 26.1056C51.0387 26.7857 51.3402 26.9182 52.4348 26.9182H56.4143C57.7303 26.9182 57.8104 26.9182 58.0428 25.6291L59.9493 15.0694C60.4801 16.243 61.0752 17.3861 61.7317 18.4936L66.33 26.1056C66.8137 26.8819 66.8702 26.923 67.6256 26.9182H74.5999C75.7117 26.9182 75.795 26.9451 76.1593 26.265L76.3477 25.9068L78.3375 22.1197H87.6124L88.1794 26.2807C88.205 26.4559 88.2923 26.6159 88.4255 26.7318C88.5586 26.8476 88.7288 26.9115 88.9049 26.9119H94.6527C94.8763 26.9119 95.0908 26.8227 95.249 26.6637C95.4072 26.5048 95.496 26.2893 95.496 26.0646C95.4966 26.0143 95.4924 25.9641 95.4834 25.9147L95.4976 25.921ZM81.2506 16.8209L85.4578 8.38365L86.6042 16.8209H81.2506Z" fill="black"/>
</svg>
