<svg width="100" height="37" viewBox="0 0 100 37" fill="none" xmlns="http://www.w3.org/2000/svg">
<g clip-path="url(#clip0_216_265)">
<path d="M11.0307 36.0678C8.05116 35.9479 5.61341 35.1225 3.70729 33.5893C3.34352 33.2965 2.47668 32.4183 2.18586 32.0479C1.41291 31.0639 0.887397 30.1062 0.536887 29.0437C-0.541683 25.7729 0.0134182 21.4808 2.12464 16.7704C3.93229 12.7377 6.72157 8.73802 11.5879 3.19852C12.3047 2.38339 14.4394 -0.000488281 14.4532 -0.000488281C14.4583 -0.000488281 14.342 0.203549 14.1955 0.452012C12.9302 2.59776 11.8476 5.12525 11.2578 7.31337C10.3103 10.8244 10.4246 13.8374 11.5925 16.1738C12.3981 17.7834 13.7792 19.1775 15.3323 19.9482C18.0511 21.2969 22.0318 21.4085 26.893 20.2747C27.2277 20.1962 43.8123 15.7388 63.748 10.3693C83.6837 4.99921 99.9975 0.609042 100 0.612657C100.006 0.617314 53.6838 20.6853 29.6374 31.0965C25.8292 32.7448 24.8108 33.1611 23.0205 33.7975C18.444 35.4246 14.3445 36.201 11.0307 36.0678Z" fill="black"/>
</g>
<defs>
<clipPath id="clip0_216_265">
<rect width="100" height="36.0825" fill="white"/>
</clipPath>
</defs>
</svg>
