<svg width="78" height="38" viewBox="0 0 78 38" fill="none" xmlns="http://www.w3.org/2000/svg">
<path d="M39.6455 13.6875L43.1704 7.63497L55.1408 6.87842L55.5596 6.13905L44.4966 5.38249L47.0965 0.963484H67.6174C73.9342 0.963484 78.5932 3.19878 76.7784 9.71552C76.2374 11.7101 73.6724 16.6965 66.1342 18.7771C67.7395 18.9662 71.718 20.7029 71.0201 25.2078C69.7986 33.2033 59.3113 37.0033 53.4656 37.0033L29.228 37.0205L28.0241 32.3951L40.7274 31.5183L41.1636 30.7788L27.3784 29.9535L25.8952 24.4684L45.4912 23.3337L45.9274 22.6114L10.7314 20.445L12.4241 17.5562L50.3248 15.1318L50.761 14.4096L39.6455 13.6875ZM55.5073 14.8911L58.9972 14.8739C61.3355 14.8567 63.7609 13.8078 64.651 11.6929C65.471 9.71552 64.3717 8.03046 62.9059 8.04765H59.5207L55.5073 14.8911ZM51.4764 21.7517L47.271 28.9562H51.2845C53.1516 28.9562 56.4845 28.0449 57.514 25.4314C58.4737 22.9898 56.7113 21.7517 55.4898 21.7517H51.4764ZM20.9046 32.8766L18.4616 36.9861L1.04688 37.0205L2.73949 34.1318L20.9046 32.8766ZM22.1261 0.946289L36.1381 0.963484L37.2026 4.86665L20.4684 3.83497L22.1261 0.946289ZM37.9878 7.96168L39.5234 13.6875L15.5999 12.1399L17.2751 9.26846L37.9878 7.96168ZM25.8079 24.4684L22.7717 29.6613L5.89788 28.7155L7.59049 25.8268L25.8079 24.4684Z" fill="black"/>
</svg>
