<svg width="123" height="42" viewBox="0 0 123 42" fill="none" xmlns="http://www.w3.org/2000/svg">
<path d="M13.1954 29.3573C10.8835 29.3573 9.77228 27.58 10.3526 25.5239C11.5507 21.2625 19.2493 14.9476 24.4956 14.9476C28.3212 14.9476 28.03 18.3708 25.7872 21.2906L24.5476 22.6629C20.101 27.0262 15.979 29.3573 13.1954 29.3573ZM31.9466 0.621094C25.2511 0.623694 17.878 4.71973 13.2474 8.59893L13.613 9.12881C20.8004 4.09053 30.7735 0.814534 33.5228 5.72853C34.9746 8.32073 32.5103 13.5561 29.0398 17.6937C29.8698 15.8665 29.3217 12.358 24.4826 12.358C16.4382 12.358 0.601562 23.0144 0.601562 33.9203C0.601562 38.2889 3.63212 41.139 8.62412 41.139C21.986 41.139 40.107 19.2366 40.107 8.23597C40.107 4.35001 37.8715 0.621094 31.9466 0.621094Z" fill="black"/>
<path d="M49.1466 29.3573C48.3687 29.3573 47.7213 29.0858 47.3162 28.5903C46.894 28.0708 46.7682 27.3345 46.9684 26.5742C47.413 24.9248 49.1908 23.6289 51.0191 23.6289H55.3196L53.783 29.3573H49.1466ZM61.506 12.1848C60.2762 10.6726 58.2851 9.99609 56.8603 9.99609H49.0458L47.7192 14.9434H55.0892L55.7954 15.0177C55.8026 15.0177 56.4719 15.0957 56.8452 15.5981C57.1468 16.0182 57.191 16.6422 56.9742 17.4607L56.6258 18.7628H51.9822C47.9855 18.7628 42.4137 21.6301 41.1714 26.2612C40.5536 28.5705 41.095 30.5709 42.2951 32.041C43.4859 33.5001 45.7334 34.3056 48.1612 34.3056H52.4616H52.459H57.9247L60.4883 24.7319L62.3754 17.6947C63.1164 14.9278 62.3135 13.1702 61.506 12.1848Z" fill="black"/>
<path d="M115.19 9.99609C113.076 9.99609 111.111 10.6217 109.514 11.8057C107.901 13.0001 107.011 14.4353 106.481 16.415C105.33 20.7055 108.702 22.7761 111.411 24.2441C113.354 25.2966 115.035 26.2045 114.671 27.5492C114.414 28.5143 113.992 29.3588 111.602 29.3588H104.304L102.98 34.3056H111.058C113.223 34.3056 115.222 33.8547 116.833 32.6182C118.445 31.3775 119.356 29.649 119.919 27.5393C120.46 25.5316 120.095 23.6139 118.803 22.1828C117.726 20.9811 116.177 20.1465 114.812 19.4091C113.063 18.4679 111.413 17.5798 111.701 16.5034C111.878 15.8518 112.524 14.9434 113.937 14.9434H121.035L122.362 9.99609H115.19Z" fill="black"/>
<path d="M72.8401 9.99609C70.7263 9.99609 68.7622 10.6217 67.1643 11.8057C65.5512 13.0001 64.6615 14.4353 64.1259 16.415C62.9777 20.7055 66.352 22.7761 69.0607 24.2441C71.005 25.2966 72.6815 26.2045 72.3211 27.5492C72.0616 28.5143 71.642 29.3588 69.2515 29.3588H61.9554L60.6289 34.3056H68.7055C70.8739 34.3056 72.8723 33.8547 74.4827 32.6182C76.0973 31.3775 77.0063 29.649 77.5695 27.5393C78.1082 25.5316 77.7431 23.6139 76.4561 22.1828C75.3792 20.9811 73.8275 20.1465 72.4599 19.4091C70.7133 18.4679 69.0659 17.5798 69.3545 16.5034C69.5277 15.8518 70.1766 14.9434 71.5869 14.9434H78.6812L80.0103 9.99609H72.8401Z" fill="black"/>
<path d="M83.8586 9.99609L77.5234 34.3056H82.8758L89.2058 9.99609H83.8586Z" fill="black"/>
<path d="M103.448 9.99609C94.0246 10.0299 89.0935 16.3053 87.5283 22.1511C85.6739 29.0827 89.3639 34.3061 96.1119 34.3061H100.634L101.958 29.3593H97.4374C94.9117 29.3593 91.4387 27.3719 92.8385 22.1511C93.9503 18.0015 97.9964 14.9439 102.435 14.9439H105.306L106.633 9.99661H103.448V9.99609Z" fill="black"/>
</svg>
