<svg width="30" height="23" viewBox="0 0 30 23" fill="none" xmlns="http://www.w3.org/2000/svg">
<path d="M18.1874 23C18.3428 23.0009 18.4968 22.9719 18.6406 22.9146C18.7845 22.8574 18.9153 22.7731 19.0256 22.6665L29.6508 12.3187C29.7614 12.2118 29.8493 12.0846 29.9092 11.9445C29.9691 11.8044 30 11.6541 30 11.5023C30 11.3506 29.9691 11.2003 29.9092 11.0602C29.8493 10.9201 29.7614 10.7929 29.6508 10.686L19.0256 0.338136C18.9156 0.230934 18.7849 0.145896 18.6411 0.087879C18.4972 0.0298615 18.3431 2.25912e-09 18.1874 0C18.0317 -2.25912e-09 17.8776 0.0298616 17.7338 0.087879C17.59 0.145896 17.4593 0.230934 17.3492 0.338136C17.2391 0.445338 17.1518 0.572606 17.0922 0.712673C17.0327 0.852739 17.002 1.00286 17.002 1.15447C17.002 1.30608 17.0327 1.4562 17.0922 1.59626C17.1518 1.73633 17.2391 1.8636 17.3492 1.9708L27.148 11.5023L17.3492 21.0339C17.2386 21.1408 17.1507 21.2679 17.0908 21.408C17.0309 21.5482 17 21.6984 17 21.8502C17 22.002 17.0309 22.1523 17.0908 22.2924C17.1507 22.4325 17.2386 22.5597 17.3492 22.6665C17.4595 22.7731 17.5904 22.8574 17.7342 22.9146C17.878 22.9719 18.032 23.0009 18.1874 23Z" fill="white"/>
<path d="M1.15247 12.6518H28.8386C29.1445 12.6518 29.438 12.5307 29.6543 12.3151C29.8706 12.0994 29.9922 11.807 29.9922 11.5021C29.9922 11.1971 29.8706 10.9047 29.6543 10.6891C29.438 10.4734 29.1445 10.3523 28.8386 10.3523H1.15247C0.846516 10.3523 0.553093 10.4734 0.336754 10.6891C0.120415 10.9047 -0.00112343 11.1971 -0.00112343 11.5021C-0.00112343 11.807 0.120415 12.0994 0.336754 12.3151C0.553093 12.5307 0.846516 12.6518 1.15247 12.6518Z" fill="white"/>
</svg>
