<svg width="22" height="20" viewBox="0 0 22 20" fill="none" xmlns="http://www.w3.org/2000/svg">
<path d="M10.9724 1.4631C8.29758 -0.305846 4.65341 -0.454151 2.19287 1.77598C-0.627725 4.33336 -0.742425 8.62013 1.93637 11.3129L10.2459 19.6724C10.6827 20.1109 11.4155 20.1089 11.8497 19.6682C14.3851 17.0809 17.9468 13.5375 20.0187 11.3788C22.689 8.6777 22.685 4.28348 19.8553 1.73472C17.3523 -0.655521 13.9244 -0.410376 10.9724 1.4631ZM18.34 3.26838C20.3019 5.03545 20.3917 7.95197 18.5404 9.82463C16.061 12.3619 13.5498 14.9008 11.0435 17.4143L3.53577 9.86171C1.6786 7.99485 1.757 5.07643 3.71253 3.30341C5.51006 1.67419 8.34851 1.85884 10.2848 3.49896C10.7052 3.85414 11.3378 3.85144 11.7548 3.49266C13.9464 1.85484 16.1743 1.37438 18.34 3.26838Z" fill="#999999"/>
</svg>
