<svg width="18" height="22" viewBox="0 0 18 22" fill="none" xmlns="http://www.w3.org/2000/svg">
<path d="M9 0C4.022 0.037113 0 4.09146 0 9.09069C0 11.5271 1.036 13.8843 2.559 15.5373L9.002 22L15.421 15.5594C16.956 13.9064 18 11.5401 18 9.09069C17.999 4.09246 13.977 0.037113 9 0ZM13.98 14.1692L9.002 19.1634L4.003 14.1491C2.748 12.7719 2 10.8841 2 9.09069C2 5.21789 5.139 2.04322 9 2.00711C12.86 2.04322 15.999 5.21889 16 9.09069C16 10.8972 15.245 12.793 13.98 14.1692Z" fill="#D6D6D6"/>
<path d="M9.00059 4.94922C6.75459 4.94922 4.93359 6.77578 4.93359 9.02864C4.93359 11.2815 6.75459 13.1081 9.00059 13.1081C11.2466 13.1081 13.0676 11.2815 13.0676 9.02864C13.0676 6.77478 11.2466 4.94922 9.00059 4.94922ZM9.00059 11.101C7.86059 11.101 6.93359 10.1711 6.93359 9.02764C6.93359 7.88416 7.86059 6.95432 9.00059 6.95432C10.1406 6.95432 11.0676 7.88416 11.0676 9.02764C11.0676 10.1711 10.1406 11.101 9.00059 11.101Z" fill="#D6D6D6"/>
</svg>
