<svg width="19" height="32" viewBox="0 0 19 32" fill="none" xmlns="http://www.w3.org/2000/svg">
<path d="M16.5515 32C16.3096 32.0013 16.0698 31.9565 15.8459 31.868C15.622 31.7796 15.4183 31.6493 15.2466 31.4845L0.543638 17.2656C0.371378 17.1003 0.234651 16.9037 0.141345 16.6872C0.0480391 16.4706 0 16.2383 0 16.0036C0 15.769 0.0480391 15.5367 0.141345 15.3201C0.234651 15.1035 0.371378 14.9069 0.543638 14.7417L15.2466 0.52271C15.5927 0.188025 16.062 0 16.5515 0C17.0409 0 17.5103 0.188025 17.8564 0.52271C18.2024 0.857396 18.3969 1.31133 18.3969 1.78464C18.3969 2.25796 18.2024 2.71189 17.8564 3.04658L4.43992 16.0036L17.8564 28.9607C18.0286 29.1259 18.1653 29.3225 18.2587 29.5391C18.352 29.7557 18.4 29.988 18.4 30.2226C18.4 30.4572 18.352 30.6895 18.2587 30.9061C18.1653 31.1227 18.0286 31.3193 17.8564 31.4845C17.6846 31.6493 17.481 31.7796 17.257 31.868C17.0331 31.9565 16.7934 32.0013 16.5515 32Z" fill="white"/>
</svg>
