<svg width="24" height="22" viewBox="0 0 24 22" fill="none" xmlns="http://www.w3.org/2000/svg">
<path d="M6.10699 2.31579L5.49398 0H1.15663C0.84987 0 0.555678 0.121992 0.338768 0.339139C0.121859 0.556287 0 0.850802 0 1.15789C0 1.46499 0.121859 1.7595 0.338768 1.97665C0.555678 2.1938 0.84987 2.31579 1.15663 2.31579H3.72434L7.46024 17.3684H22.8434V15.0526H9.26458L8.88289 13.5011L24 10.6179V2.31579H6.10699ZM21.6867 8.70737L8.32771 11.2432L6.6506 4.63158H21.6867V8.70737ZM7.80723 18.5263C7.46409 18.5263 7.12866 18.6282 6.84335 18.819C6.55804 19.0099 6.33567 19.2811 6.20435 19.5985C6.07304 19.9159 6.03868 20.2651 6.10563 20.602C6.17257 20.9389 6.33781 21.2484 6.58044 21.4913C6.82308 21.7342 7.13221 21.8996 7.46876 21.9666C7.8053 22.0336 8.15414 21.9992 8.47116 21.8678C8.78818 21.7363 9.05914 21.5137 9.24978 21.2281C9.44042 20.9425 9.54217 20.6067 9.54217 20.2632C9.54217 19.8025 9.35938 19.3607 9.03402 19.035C8.70865 18.7093 8.26736 18.5263 7.80723 18.5263ZM21.6867 18.5263C21.3436 18.5263 21.0082 18.6282 20.7229 18.819C20.4376 19.0099 20.2152 19.2811 20.0839 19.5985C19.9526 19.9159 19.9182 20.2651 19.9851 20.602C20.0521 20.9389 20.2173 21.2484 20.46 21.4913C20.7026 21.7342 21.0117 21.8996 21.3483 21.9666C21.6848 22.0336 22.0337 21.9992 22.3507 21.8678C22.6677 21.7363 22.9387 21.5137 23.1293 21.2281C23.3199 20.9425 23.4217 20.6067 23.4217 20.2632C23.4217 19.8025 23.2389 19.3607 22.9135 19.035C22.5882 18.7093 22.1469 18.5263 21.6867 18.5263Z" fill="#999999"/>
</svg>
