<svg width="12" height="16" viewBox="0 0 12 16" fill="none" xmlns="http://www.w3.org/2000/svg">
<path d="M10.6968 6.97394L2.29645 0.306154C2.01088 0.0811582 1.64334 -0.0268798 1.27432 0.00569806C0.905293 0.038276 0.56486 0.208815 0.327568 0.479969C0.0902764 0.751123 -0.0245352 1.10079 0.00827526 1.45241C0.0410857 1.80402 0.218844 2.12893 0.502625 2.35597L7.61232 7.99889L0.502625 13.6418C0.217751 13.8685 0.0390098 14.1937 0.00566593 14.5459C-0.0276779 14.898 0.0871025 15.2484 0.324793 15.52C0.562484 15.7916 0.903645 15.9623 1.27334 15.9945C1.64303 16.0266 2.01101 15.9177 2.29645 15.6917L10.6968 9.02376C10.8544 8.89841 10.9811 8.74166 11.068 8.56456C11.1549 8.38747 11.2 8.19435 11.2 7.99885C11.2 7.80335 11.1549 7.61023 11.068 7.43314C10.9811 7.25604 10.8544 7.09929 10.6968 6.97394Z" fill="black"/>
</svg>
