<svg width="24" height="19" viewBox="0 0 24 19" fill="none" xmlns="http://www.w3.org/2000/svg">
<path d="M14.5497 18.4005C14.674 18.4012 14.7972 18.378 14.9123 18.3322C15.0273 18.2864 15.132 18.219 15.2203 18.1337L23.7206 9.85521C23.8091 9.7697 23.8794 9.66797 23.9274 9.55588C23.9753 9.44378 24 9.32356 24 9.20213C24 9.0807 23.9753 8.96047 23.9274 8.84838C23.8794 8.73629 23.8091 8.63456 23.7206 8.54904L15.2203 0.270516C15.1322 0.184752 15.0277 0.11672 14.9126 0.0703052C14.7975 0.0238899 14.6742 1.80735e-09 14.5497 0C14.4251 -1.80735e-09 14.3018 0.0238899 14.1868 0.0703052C14.0717 0.11672 13.9672 0.184752 13.8791 0.270516C13.791 0.35628 13.7212 0.458097 13.6735 0.570154C13.6259 0.68221 13.6013 0.802311 13.6013 0.9236C13.6013 1.04489 13.6259 1.16499 13.6735 1.27705C13.7212 1.3891 13.791 1.49092 13.8791 1.57668L21.7183 9.20213L13.8791 16.8276C13.7906 16.9131 13.7203 17.0148 13.6723 17.1269C13.6244 17.239 13.5997 17.3592 13.5997 17.4807C13.5997 17.6021 13.6244 17.7223 13.6723 17.8344C13.7203 17.9465 13.7906 18.0482 13.8791 18.1337C13.9673 18.219 14.072 18.2864 14.1871 18.3322C14.3022 18.378 14.4254 18.4012 14.5497 18.4005Z" fill="white"/>
<path d="M0.923677 10.1217H23.0732C23.318 10.1217 23.5527 10.0247 23.7258 9.85224C23.8989 9.67974 23.9961 9.44577 23.9961 9.20182C23.9961 8.95786 23.8989 8.7239 23.7258 8.5514C23.5527 8.37889 23.318 8.28198 23.0732 8.28198H0.923677C0.678911 8.28198 0.444168 8.37889 0.271091 8.5514C0.0980148 8.7239 0.000782013 8.95786 0.000782013 9.20182C0.000782013 9.44577 0.0980148 9.67974 0.271091 9.85224C0.444168 10.0247 0.678911 10.1217 0.923677 10.1217Z" fill="white"/>
</svg>
