<svg width="24" height="19" viewBox="0 0 24 19" fill="none" xmlns="http://www.w3.org/2000/svg">
<path d="M19.7 3H15.9C15.5 1 13.9 0 12 0C10.1 0 8.6 1 8.1 3H4.3L1.1 11H3.3L5 6.7L7.5 13H0V14C0 16.8 2.2 19 5 19C7.8 19 10 16.8 10 14V13.8L6.5 5H8.2C8.6 7 10.2 8 12.1 8C14 8 15.5 7 16 5H17.5L15 11H17.2L19 6.5L21.6 13H14V14C14 16.8 16.2 19 19 19C21.8 19 24 16.8 24 14V13.8L19.7 3ZM5 17C3.7 17 2.6 16 2.2 15H7.9C7.4 16 6.3 17 5 17ZM12 6C10.9 6 10 5.1 10 4C10 2.9 10.9 2 12 2C13.1 2 14 2.9 14 4C14 5.1 13.1 6 12 6ZM19 17C17.7 17 16.6 16 16.2 15H21.9C21.4 16 20.3 17 19 17Z" fill="#999999"/>
</svg>
