<svg width="24" height="24" viewBox="0 0 24 24" fill="none" xmlns="http://www.w3.org/2000/svg">
<path d="M21.9333 8.4C21.4667 7.93333 21.2333 7.35 21.2333 6.76667C21.2333 4.2 19.1333 2.1 16.5667 2.1C15.9833 2.1 15.4 1.86667 14.9333 1.4C13.0667 -0.466667 10.15 -0.466667 8.28333 1.4C7.93333 1.86667 7.35 2.1 6.76667 2.1C4.2 2.1 2.1 4.2 2.1 6.76667C2.1 7.35 1.86667 7.93333 1.4 8.4C-0.466667 10.2667 -0.466667 13.1833 1.4 15.05C1.86667 15.5167 2.1 16.1 2.1 16.6833C2.1 19.25 4.2 21.35 6.76667 21.35C7.35 21.35 7.93333 21.5833 8.4 22.05C9.33333 22.8667 10.5 23.3333 11.6667 23.3333C12.8333 23.3333 14.1167 22.8667 14.9333 21.9333C15.4 21.4667 15.9833 21.2333 16.5667 21.2333C19.1333 21.2333 21.2333 19.1333 21.2333 16.5667C21.2333 15.9833 21.4667 15.4 21.8167 14.9333C23.8 13.1833 23.8 10.15 21.9333 8.4ZM20.3 13.3C19.3667 14.2333 18.9 15.4 18.9 16.5667C18.9 17.85 17.85 18.9 16.5667 18.9C15.2833 18.9 14.1167 19.3667 13.3 20.3C12.3667 21.2333 10.9667 21.2333 10.0333 20.3C9.1 19.3667 7.93333 18.9 6.76667 18.9C5.48333 18.9 4.43333 17.85 4.43333 16.5667C4.43333 15.2833 3.96667 14.1167 3.03333 13.3C2.1 12.3667 2.1 10.9667 3.03333 10.0333C3.96667 9.1 4.43333 7.93333 4.43333 6.76667C4.43333 5.48333 5.48333 4.43333 6.76667 4.43333C8.05 4.43333 9.21667 3.96667 10.0333 3.03333C10.5 2.56667 11.0833 2.33333 11.6667 2.33333C12.25 2.33333 12.8333 2.56667 13.3 3.03333C14.2333 3.96667 15.4 4.43333 16.5667 4.43333C17.85 4.43333 18.9 5.48333 18.9 6.76667C18.9 8.05 19.3667 9.21667 20.3 10.0333C21.2333 10.9667 21.2333 12.3667 20.3 13.3L21.1167 14.1167L20.3 13.3Z" fill="#E01F2E"/>
<path d="M14.0026 15.1663C14.6469 15.1663 15.1693 14.644 15.1693 13.9997C15.1693 13.3553 14.6469 12.833 14.0026 12.833C13.3583 12.833 12.8359 13.3553 12.8359 13.9997C12.8359 14.644 13.3583 15.1663 14.0026 15.1663Z" fill="#E01F2E"/>
<path d="M9.33073 10.5003C9.97506 10.5003 10.4974 9.97799 10.4974 9.33366C10.4974 8.68933 9.97506 8.16699 9.33073 8.16699C8.6864 8.16699 8.16406 8.68933 8.16406 9.33366C8.16406 9.97799 8.6864 10.5003 9.33073 10.5003Z" fill="#E01F2E"/>
<path d="M13.1807 8.51699L8.51406 13.1837C8.0474 13.6503 8.0474 14.3503 8.51406 14.817C8.7474 15.0503 8.98073 15.167 9.33073 15.167C9.68073 15.167 9.91406 15.0503 10.1474 14.817L14.8141 10.1503C15.2807 9.68366 15.2807 8.98366 14.8141 8.51699C14.3474 8.05033 13.6474 8.05033 13.1807 8.51699Z" fill="#E01F2E"/>
</svg>
