<svg width="215" height="74" viewBox="0 0 215 74" fill="none" xmlns="http://www.w3.org/2000/svg">
<g clip-path="url(#clip0_216_119)">
<path d="M113.333 9.71743C113.333 6.59124 114.078 4.18911 115.57 2.51105C117.062 0.832993 119.301 -0.00401929 122.289 1.45101e-05C125.28 1.45101e-05 127.522 0.837027 129.014 2.51105C130.505 4.18508 131.249 6.58721 131.245 9.71743V11.2059H125.497V9.33018C125.497 7.93247 125.224 6.94621 124.69 6.37745C124.075 5.82469 123.277 5.51879 122.45 5.51879C121.622 5.51879 120.824 5.82469 120.209 6.37745C119.675 6.94621 119.409 7.93046 119.409 9.33018C119.395 10.5593 119.714 11.7694 120.33 12.8335C120.938 13.8677 121.671 14.823 122.513 15.6774C123.399 16.5789 124.332 17.4926 125.363 18.382C126.389 19.2998 127.341 20.2951 128.213 21.359C129.12 22.4585 129.865 23.6808 130.427 24.9894C131.05 26.513 131.351 28.1485 131.312 29.7936C131.312 32.9198 130.548 35.3199 129.02 36.994C127.492 38.668 125.23 39.509 122.234 39.5171C119.251 39.5171 116.993 38.6801 115.461 37.0061C113.929 35.332 113.163 32.9319 113.163 29.8057V27.1737H118.917V30.199C118.917 31.5988 119.202 32.5729 119.772 33.1215C120.418 33.6569 121.231 33.95 122.071 33.95C122.91 33.95 123.723 33.6569 124.369 33.1215C124.939 32.5729 125.224 31.5988 125.224 30.199C125.248 28.9714 124.942 27.7597 124.339 26.6896C123.731 25.6445 122.996 24.679 122.149 23.8155C121.264 22.914 120.33 22.0003 119.299 21.1109C118.277 20.2005 117.327 19.2134 116.455 18.1581C115.548 17.0595 114.803 15.837 114.242 14.5277C113.619 13.0062 113.318 11.3727 113.357 9.72953L113.333 9.71743ZM92.667 9.72953C92.667 6.60334 93.4149 4.20121 94.9106 2.52315C96.4064 0.845095 98.646 0.00808238 101.629 0.0121162C104.621 0.0121162 106.86 0.849129 108.348 2.52315C109.836 4.19718 110.584 6.5993 110.592 9.72953V11.218H104.837V9.34229C104.837 7.94659 104.57 6.96235 104.037 6.38955C103.422 5.83679 102.624 5.53089 101.796 5.53089C100.969 5.53089 100.17 5.83679 99.5555 6.38955C99.0219 6.95831 98.7551 7.94256 98.7551 9.34229C98.7277 10.5684 99.0336 11.7791 99.6404 12.8456C100.25 13.8759 100.986 14.8271 101.829 15.6774C102.715 16.5809 103.663 17.4825 104.673 18.382C105.698 19.2923 106.65 20.2794 107.523 21.3348C108.43 22.4343 109.175 23.6566 109.737 24.9652C110.363 26.5007 110.666 28.1483 110.628 29.8057C110.628 32.9319 109.862 35.332 108.33 37.0061C106.798 38.6801 104.532 39.5171 101.532 39.5171C98.5408 39.5171 96.2831 38.6801 94.759 37.0061C93.235 35.332 92.4689 32.9319 92.4608 29.8057V27.1737H98.2154V30.199C98.2154 31.5988 98.5004 32.5729 99.0704 33.1215C99.7146 33.6575 100.527 33.9511 101.366 33.9511C102.204 33.9511 103.017 33.6575 103.661 33.1215C104.231 32.5709 104.522 31.5967 104.522 30.199C104.546 28.9714 104.24 27.7597 103.637 26.6896C103.019 25.6467 102.276 24.6835 101.423 23.8216C100.538 22.9221 99.5879 22.0205 98.5732 21.1169C97.5491 20.2066 96.5963 19.2195 95.7232 18.1642C94.8179 17.064 94.0728 15.8418 93.5099 14.5338C92.8935 13.0045 92.5984 11.3652 92.6427 9.71743L92.667 9.72953ZM79.1507 16.7241H87.5006V22.2424H79.1507V33.5572H89.6593V39.0754H73.0626V0.441715H89.6593V5.95995H79.1507V16.7241ZM54.8953 11.097V39.0754H49.4378V0.441715H57.0237L63.2755 23.5433V0.441715H68.6966V39.0754H62.4448L54.8953 11.097ZM27.8747 0.441715H46.6727V5.95995H40.3238V39.0754H34.2236V5.95995H27.8747V0.441715ZM19.0276 0.441715H25.1278V39.0754H19.0639L19.0276 0.441715ZM6.08729 17.6075H13.94V23.1258H6.08729V39.0754H0.0234375V0.441715H16.0987V5.95995H6.08729V17.6075Z" fill="#3A3A39"/>
<path d="M207.103 13.7656H213.331V17.8801H207.103V26.351H214.925V30.4655H202.561V1.62185H214.925V5.73632H207.103V13.7656ZM199.796 19.6953V23.5435C199.796 25.8791 199.226 27.6701 198.086 28.9165C196.946 30.163 195.26 30.7882 193.029 30.7922C190.805 30.7922 189.122 30.167 187.978 28.9165C186.834 27.6661 186.264 25.8751 186.268 23.5435V8.5378C186.268 6.20223 186.838 4.41122 187.978 3.16478C189.118 1.91834 190.801 1.2931 193.029 1.28906C195.26 1.28906 196.946 1.9143 198.086 3.16478C199.226 4.41525 199.796 6.20626 199.796 8.5378V11.3332H195.521V8.24736C195.6 7.45789 195.37 6.66849 194.878 6.04491C194.649 5.83413 194.379 5.67186 194.085 5.56787C193.791 5.46388 193.48 5.42033 193.168 5.43984C192.856 5.4209 192.544 5.46469 192.249 5.56863C191.954 5.67257 191.683 5.83453 191.452 6.04491C190.974 6.67381 190.756 7.4627 190.846 8.24736V23.8097C190.757 24.5887 190.974 25.3719 191.452 25.994C191.684 26.2024 191.955 26.3631 192.25 26.467C192.544 26.5708 192.856 26.6157 193.168 26.5991C193.479 26.6166 193.791 26.572 194.084 26.4682C194.378 26.3643 194.648 26.2031 194.878 25.994C195.369 25.3772 195.6 24.5936 195.521 23.8097V19.6953H199.796ZM174.176 21.2987H178.542L176.359 6.72259L174.176 21.2987ZM184.533 30.4353H179.955L179.149 25.2075H173.582L172.794 30.4353H168.628L173.249 1.62185H179.919L184.533 30.4353ZM155.773 1.62185H160.314V26.3208H167.779V30.4353H155.773V1.62185ZM144.761 5.73632V15.4961H146.907C147.209 15.5122 147.511 15.4669 147.794 15.3629C148.078 15.2589 148.337 15.0983 148.557 14.891C148.939 14.5098 149.133 13.7958 149.133 12.7551V8.45308C149.133 7.41237 148.939 6.69838 148.557 6.31114C148.334 6.11013 148.074 5.95569 147.79 5.85696C147.507 5.75822 147.207 5.7172 146.907 5.73632H144.761ZM146.907 1.62185C149.187 1.62185 150.885 2.22692 152.001 3.43706C153.117 4.6472 153.681 6.40795 153.681 8.74352V12.4889C153.681 14.8184 153.129 16.5913 152.013 17.8014C150.897 19.0115 149.199 19.6166 146.919 19.6166H144.773V30.4353H140.219V1.62185H146.907Z" fill="#E4002C"/>
<path d="M214.939 33.9932H139.195V39.7292H214.939V33.9932Z" fill="#E4002C"/>
<path d="M7.64745 48.7383V59.3996H6.70149V53.7967C6.70149 52.6652 6.73181 51.7213 6.79245 50.7713H6.73181C6.45893 51.5337 6.0284 52.5502 5.62819 53.5728L4.31233 56.9249H3.36637L2.05051 53.5728C1.65636 52.5502 1.22583 51.5337 0.946892 50.7713H0.886253C0.946892 51.7152 0.983275 52.6591 0.983275 53.7967V59.4299H0.03125V48.7383H1.04391L2.95403 53.3368C3.2269 54.0205 3.60892 55.152 3.80903 55.7147H3.86967C4.06978 55.1097 4.47605 54.0205 4.72467 53.3368L6.64085 48.7383H7.64745Z" fill="#3A3A39"/>
<path d="M14.0252 56.9007H10.6294L10.023 59.3996H8.99219L11.7876 48.7383H12.8306L15.6442 59.3996H14.6558L14.0252 56.9007ZM13.813 56.0475L12.7093 51.6305C12.5456 50.977 12.3879 50.2147 12.3455 49.9545H12.3152C12.2667 50.2147 12.1151 50.977 11.9453 51.6305L10.8477 56.0475H13.813Z" fill="#3A3A39"/>
<path d="M21.8892 49.6217H17.9538V59.3996H17.0078V48.7383H21.8589L21.8892 49.6217Z" fill="#3A3A39"/>
<path d="M26.5564 56.9007H23.1607L22.5543 59.3996H21.5234L24.3371 48.7383H25.38L28.1937 59.3996H27.181L26.5564 56.9007ZM26.3442 56.0475L25.2406 51.6305C25.0708 50.977 24.9192 50.2147 24.8767 49.9545C24.8282 50.2147 24.6766 50.977 24.5069 51.6305L23.4032 56.0475H26.3442Z" fill="#3A3A39"/>
<path d="M35.0436 56.5502C35.0714 56.9546 35.0121 57.3603 34.8695 57.74C34.727 58.1196 34.5046 58.4644 34.2173 58.751C33.93 59.0377 33.5845 59.2596 33.2041 59.4018C32.8236 59.544 32.417 59.6033 32.0117 59.5755C31.6049 59.5929 31.1989 59.5271 30.8185 59.3823C30.4381 59.2375 30.0914 59.0167 29.7995 58.7335C29.5077 58.4502 29.2769 58.1104 29.1213 57.735C28.9658 57.3596 28.8887 56.9564 28.8949 56.5502H29.853C29.95 57.8329 30.6958 58.6861 31.9814 58.6861C32.2649 58.7025 32.5486 58.6581 32.8134 58.556C33.0783 58.4539 33.3182 58.2964 33.517 58.094C33.7157 57.8917 33.8688 57.6492 33.9658 57.3829C34.0628 57.1166 34.1016 56.8327 34.0795 56.5502C34.0935 56.2515 34.0434 55.9533 33.9326 55.6755C33.8218 55.3977 33.6529 55.1467 33.437 54.9394C33.2211 54.732 32.9634 54.573 32.681 54.4731C32.3986 54.3731 32.098 54.3345 31.7995 54.3598H30.9263V53.4764H31.6964C32.9091 53.4764 33.8672 52.8714 33.8672 51.4192C33.8987 51.1597 33.8719 50.8964 33.7888 50.6485C33.7056 50.4006 33.5682 50.1743 33.3865 49.986C33.2047 49.7977 32.9832 49.6522 32.7381 49.5599C32.493 49.4677 32.2303 49.4311 31.9692 49.4527C30.7019 49.4527 30.1501 50.2454 30.0106 51.6189H29.0647C29.1677 49.725 30.1804 48.5391 31.9874 48.5391C33.6793 48.5391 34.8132 49.604 34.8132 51.4979C34.8806 52.0412 34.7428 52.5901 34.4267 53.0376C34.1105 53.485 33.6387 53.7989 33.1032 53.9181C33.6894 54.0514 34.208 54.3906 34.5643 54.8739C34.9205 55.3571 35.0907 55.9521 35.0436 56.5502Z" fill="#3A3A39"/>
<path d="M36.7891 48.7387H37.735V55.4852C37.735 56.0176 37.735 56.9918 37.6865 57.5303H37.735C37.8745 57.1673 38.1959 56.4049 38.4869 55.7938L41.6038 48.7266H42.6771V59.3879H41.725V52.3691V50.5539H41.6947C41.6038 50.7959 41.2824 51.5583 41.1308 51.9213L37.8078 59.3697H36.7891V48.7387Z" fill="#3A3A39"/>
<path d="M50.7373 48.7383V59.3996H49.7914V54.4017H45.9833V59.3815H45.0312V48.7383H45.9833V53.5365H49.7914V48.7383H50.7373Z" fill="#3A3A39"/>
<path d="M62.1177 56.5502C62.1456 56.9546 62.0862 57.3603 61.9437 57.74C61.8011 58.1196 61.5787 58.4644 61.2914 58.751C61.0042 59.0377 60.6587 59.2596 60.2782 59.4018C59.8977 59.544 59.4912 59.6033 59.0858 59.5755C58.6793 59.592 58.2736 59.5257 57.8936 59.3805C57.5136 59.2354 57.1672 59.0146 56.8756 58.7315C56.5839 58.4484 56.3531 58.109 56.1973 57.734C56.0414 57.3589 55.9637 56.9562 55.969 56.5502H56.9332C57.0241 57.8329 57.77 58.6861 59.0555 58.6861C59.339 58.7025 59.6227 58.6581 59.8876 58.556C60.1524 58.4539 60.3923 58.2964 60.5911 58.094C60.7899 57.8917 60.9429 57.6492 61.0399 57.3829C61.137 57.1166 61.1757 56.8327 61.1536 56.5502C61.1688 56.2502 61.1192 55.9504 61.008 55.6712C60.8969 55.392 60.7268 55.1399 60.5094 54.9321C60.2919 54.7243 60.0322 54.5657 59.7479 54.4669C59.4635 54.3682 59.1612 54.3317 58.8615 54.3598H57.9883V53.4764H58.7523C59.9651 53.4764 60.9232 52.8714 60.9232 51.4192C60.9558 51.1595 60.9298 50.8957 60.8471 50.6473C60.7643 50.3989 60.6269 50.1721 60.445 49.9835C60.263 49.795 60.041 49.6495 59.7953 49.5576C59.5497 49.4658 59.2865 49.4299 59.0252 49.4527C57.7578 49.4527 57.1757 50.2454 57.0666 51.6189H56.1206C56.2297 49.725 57.2363 48.5391 59.0434 48.5391C60.7413 48.5391 61.8691 49.604 61.8691 51.4979C61.9366 52.0412 61.7988 52.5901 61.4826 53.0376C61.1665 53.485 60.6946 53.7989 60.1591 53.9181C60.7487 54.0476 61.2715 54.3853 61.6314 54.8689C61.9913 55.3525 62.164 55.9496 62.1177 56.5502Z" fill="#3A3A39"/>
<path d="M70.0533 58.5162V61.1543H69.1377V59.3996H63.6014V61.1543H62.6797V58.5162H63.2861C63.8925 57.9111 64.3897 56.459 64.4503 54.5591L64.6322 48.7383H69.1619V58.5162H70.0533ZM68.1796 49.6217H65.5115L65.3296 54.8011C65.3562 56.0952 65.0493 57.3744 64.4382 58.5162H68.1796V49.6217Z" fill="#3A3A39"/>
<path d="M71.3711 56.0964V52.0424C71.3711 49.8944 72.5172 48.5391 74.4455 48.5391C76.3738 48.5391 77.5198 49.8944 77.5198 52.0424V56.0964C77.5198 58.2444 76.3738 59.5997 74.4455 59.5997C72.5172 59.5997 71.3711 58.2444 71.3711 56.0964ZM76.5557 56.0964V52.0424C76.5557 50.3966 75.8402 49.4527 74.4455 49.4527C73.0508 49.4527 72.3353 50.3966 72.3353 52.0424V56.0964C72.3353 57.7422 73.0568 58.6861 74.4455 58.6861C75.8341 58.6861 76.5557 57.7422 76.5557 56.0964Z" fill="#3A3A39"/>
<path d="M85.2171 52.0117C85.2171 54.2081 84.1317 55.3638 82.1549 55.3638H80.5358V59.3996H79.5898V48.7383H82.1306C84.1317 48.7383 85.2171 49.9242 85.2171 52.0117ZM84.2651 52.0117C84.2651 50.4264 83.592 49.6338 82.1549 49.6338H80.5358V54.4743H82.1306C83.592 54.4683 84.2651 53.7059 84.2651 52.0117Z" fill="#3A3A39"/>
<path d="M86.6328 56.0964V52.0424C86.6328 49.8944 87.7849 48.5391 89.7072 48.5391C91.6294 48.5391 92.7816 49.8944 92.7816 52.0424V56.0964C92.7816 58.2444 91.6355 59.5997 89.7072 59.5997C87.7789 59.5997 86.6328 58.2444 86.6328 56.0964ZM91.8235 56.0964V52.0424C91.8235 50.3966 91.1019 49.4527 89.7072 49.4527C88.3125 49.4527 87.5848 50.3966 87.5848 52.0424V56.0964C87.5848 57.7422 88.3064 58.6861 89.6951 58.6861C91.0837 58.6861 91.8295 57.7422 91.8295 56.0964H91.8235Z" fill="#3A3A39"/>
<path d="M100.648 56.4892C100.648 58.3952 99.5021 59.3996 97.6163 59.3996H94.8633V48.7383H97.3737C99.1626 48.7383 100.218 49.7427 100.218 51.5095C100.218 52.8346 99.6659 53.6454 98.823 53.8693C99.9448 54.1295 100.648 55.0613 100.648 56.4892ZM95.7971 49.6217V53.4881H97.3919C98.6047 53.4881 99.2414 52.8225 99.2414 51.5095C99.2414 50.1965 98.635 49.6217 97.3616 49.6217H95.7971ZM99.7144 56.4892C99.7144 55.1036 98.8108 54.3715 97.4647 54.3715H95.8274V58.5162H97.6466C98.9988 58.5162 99.7144 57.893 99.7144 56.4892Z" fill="#3A3A39"/>
<path d="M102.102 56.0964V52.0424C102.102 49.8944 103.248 48.5391 105.176 48.5391C107.104 48.5391 108.25 49.8944 108.25 52.0424V56.0964C108.25 58.2444 107.104 59.5997 105.176 59.5997C103.248 59.5997 102.102 58.2444 102.102 56.0964ZM107.286 56.0964V52.0424C107.286 50.3966 106.565 49.4527 105.176 49.4527C103.787 49.4527 103.066 50.3966 103.066 52.0424V56.0964C103.066 57.7422 103.781 58.6861 105.176 58.6861C106.571 58.6861 107.286 57.7422 107.286 56.0964Z" fill="#3A3A39"/>
<path d="M115.194 49.6217H111.265V59.3996H110.312V48.7383H115.194V49.6217Z" fill="#3A3A39"/>
<path d="M116.359 56.0964V52.0424C116.359 49.8944 117.505 48.5391 119.434 48.5391C121.362 48.5391 122.508 49.8944 122.508 52.0424V56.0964C122.508 58.2444 121.356 59.5997 119.434 59.5997C117.512 59.5997 116.359 58.2444 116.359 56.0964ZM121.544 56.0964V52.0424C121.544 50.3966 120.822 49.4527 119.434 49.4527C118.045 49.4527 117.299 50.3966 117.299 52.0424V56.0964C117.299 57.7422 118.021 58.6861 119.416 58.6861C120.81 58.6861 121.544 57.7422 121.544 56.0964Z" fill="#3A3A39"/>
<path d="M127.781 56.0964V52.0424C127.781 49.8944 128.927 48.5391 130.856 48.5391C132.784 48.5391 133.93 49.8944 133.93 52.0424V56.0964C133.93 58.2444 132.784 59.5997 130.856 59.5997C128.927 59.5997 127.781 58.2444 127.781 56.0964ZM132.966 56.0964V52.0424C132.966 50.3966 132.244 49.4527 130.856 49.4527C129.467 49.4527 128.745 50.3966 128.745 52.0424V56.0964C128.745 57.7422 129.461 58.6861 130.856 58.6861C132.25 58.6861 132.966 57.7422 132.966 56.0964Z" fill="#3A3A39"/>
<path d="M135.992 48.7383H141.195V49.6217H136.95V53.0645H138.709C139.124 53.038 139.54 53.1009 139.929 53.2492C140.318 53.3975 140.67 53.6276 140.962 53.9238C141.254 54.22 141.478 54.5755 141.62 54.9659C141.761 55.3564 141.817 55.7728 141.783 56.1867C141.783 58.2137 140.528 59.3996 138.709 59.3996H135.998L135.992 48.7383ZM138.703 58.5162C139.916 58.5162 140.813 57.7236 140.813 56.1867C140.813 54.6498 139.94 53.9479 138.703 53.9479H136.944V58.5162H138.703Z" fill="#3A3A39"/>
<path d="M149.103 52.0117C149.103 54.2081 148.018 55.3638 146.071 55.3638H144.446V59.3996H143.5V48.7383H146.071C148.018 48.7383 149.103 49.9242 149.103 52.0117ZM148.157 52.0117C148.157 50.4264 147.484 49.6338 146.047 49.6338H144.422V54.4743H146.047C147.484 54.4683 148.157 53.7059 148.157 52.0117Z" fill="#3A3A39"/>
<path d="M154.247 56.9007H150.851L150.245 59.3996H149.238L152.052 48.7383H153.077L155.89 59.3996H154.896L154.247 56.9007ZM154.029 56.0475L152.931 51.6305C152.761 50.977 152.61 50.2147 152.561 49.9545C152.519 50.2147 152.361 50.977 152.197 51.6305L151.094 56.0475H154.029Z" fill="#3A3A39"/>
<path d="M162.733 56.5502C162.761 56.9546 162.702 57.3603 162.559 57.74C162.417 58.1196 162.194 58.4644 161.907 58.751C161.62 59.0377 161.274 59.2596 160.894 59.4018C160.513 59.544 160.107 59.6033 159.701 59.5755C159.294 59.5928 158.888 59.5271 158.507 59.3824C158.126 59.2377 157.779 59.017 157.487 58.7338C157.195 58.4506 156.963 58.1109 156.807 57.7354C156.651 57.36 156.573 56.9567 156.578 56.5502H157.543C157.633 57.8329 158.385 58.6861 159.671 58.6861C159.954 58.7016 160.237 58.6566 160.501 58.5541C160.765 58.4515 161.004 58.2939 161.202 58.0916C161.401 57.8894 161.553 57.6472 161.65 57.3814C161.746 57.1155 161.785 56.8321 161.763 56.5502C161.778 56.2502 161.729 55.9504 161.617 55.6712C161.506 55.392 161.336 55.1399 161.119 54.9321C160.901 54.7243 160.642 54.5657 160.357 54.4669C160.073 54.3682 159.771 54.3317 159.471 54.3598H158.598V53.4764H159.362C160.605 53.4764 161.533 52.8714 161.533 51.4192C161.533 50.1728 160.847 49.4527 159.641 49.4527C158.434 49.4527 157.791 50.2454 157.682 51.6189H156.73C156.839 49.725 157.852 48.5391 159.653 48.5391C161.351 48.5391 162.485 49.604 162.485 51.4979C162.552 52.042 162.413 52.5917 162.096 53.0393C161.778 53.4869 161.305 53.8002 160.769 53.9181C161.359 54.0464 161.883 54.3835 162.245 54.8672C162.606 55.351 162.779 55.9487 162.733 56.5502Z" fill="#3A3A39"/>
<path d="M168.484 56.9007H165.088L164.481 59.3996H163.469L166.282 48.7383H167.325L170.139 59.3996H169.132L168.484 56.9007ZM168.271 56.0475L167.168 51.6305C167.004 50.977 166.846 50.2147 166.804 49.9545H166.774C166.725 50.2147 166.573 50.977 166.404 51.6305L165.306 56.0475H168.271Z" fill="#3A3A39"/>
<path d="M180.037 54.4804L179.545 55.1641V59.3996H178.63V55.1641L178.139 54.4804L174.925 59.3996H173.797L177.556 53.6575L174.039 48.7383H175.155L178.63 53.7362V48.7383H179.545V53.7483L180.54 52.3021L183.014 48.7383H184.136L180.613 53.6575L184.378 59.3996H183.244L180.037 54.4804Z" fill="#3A3A39"/>
<path d="M185.551 48.7387H186.503V55.4852C186.503 56.0176 186.503 56.9918 186.455 57.5303H186.503C186.637 57.1673 186.958 56.4049 187.249 55.7938L190.372 48.7266H191.439V59.3879H190.493V52.3691V50.5539H190.463C190.372 50.7959 190.051 51.5583 189.899 51.9213L186.582 59.3697H185.539L185.551 48.7387Z" fill="#3A3A39"/>
<path d="M199.307 56.5502C199.335 56.9546 199.276 57.3603 199.133 57.74C198.991 58.1196 198.768 58.4644 198.481 58.751C198.194 59.0377 197.848 59.2596 197.468 59.4018C197.087 59.544 196.681 59.6033 196.275 59.5755C195.869 59.5877 195.465 59.5184 195.087 59.3718C194.709 59.2252 194.364 59.0043 194.072 58.7222C193.781 58.44 193.55 58.1024 193.392 57.7293C193.234 57.3562 193.152 56.9552 193.152 56.5502H194.116C194.207 57.8329 194.959 58.6861 196.245 58.6861C196.528 58.7025 196.812 58.6581 197.077 58.556C197.342 58.4539 197.582 58.2964 197.781 58.094C197.979 57.8917 198.132 57.6492 198.229 57.3829C198.326 57.1166 198.365 56.8327 198.343 56.5502C198.357 56.2499 198.307 55.95 198.195 55.6708C198.083 55.3916 197.912 55.1396 197.695 54.932C197.477 54.7243 197.217 54.5657 196.932 54.467C196.647 54.3683 196.345 54.3318 196.045 54.3598H195.172V53.4764H195.942C197.154 53.4764 198.113 52.8714 198.113 51.4192C198.144 51.1597 198.117 50.8964 198.034 50.6485C197.951 50.4006 197.814 50.1743 197.632 49.986C197.45 49.7977 197.229 49.6522 196.983 49.5599C196.738 49.4677 196.476 49.4311 196.215 49.4527C194.947 49.4527 194.365 50.2454 194.256 51.6189H193.31C193.413 49.725 194.426 48.5391 196.227 48.5391C197.925 48.5391 199.059 49.604 199.059 51.4979C199.126 52.0412 198.988 52.5901 198.672 53.0376C198.356 53.485 197.884 53.7989 197.349 53.9181C197.938 54.0476 198.461 54.3853 198.821 54.8689C199.181 55.3525 199.353 55.9496 199.307 56.5502Z" fill="#3A3A39"/>
<path d="M206.754 48.7383V59.3996H205.832V54.4017H202.024V59.3815H201.078V48.7383H202.024V53.5365H205.832V48.7383H206.754Z" fill="#3A3A39"/>
<path d="M209.109 48.7387H210.074V55.4852C210.074 56.0176 210.074 56.9918 210.031 57.5303H210.074C210.213 57.1673 210.534 56.4049 210.825 55.7938L213.942 48.7266H215.016V59.3879H214.07V52.3691V50.5539H214.039C213.948 50.7959 213.627 51.5583 213.475 51.9213L210.152 59.3697H209.115L209.109 48.7387Z" fill="#3A3A39"/>
</g>
<defs>
<clipPath id="clip0_216_119">
<rect width="215" height="74" fill="white"/>
</clipPath>
</defs>
</svg>
