<svg width="26" height="22" viewBox="0 0 26 22" fill="none" xmlns="http://www.w3.org/2000/svg">
<path d="M23.7948 0.189749C20.3648 1.61036 5.65756 7.70229 1.59394 9.36264C-1.1313 10.4261 0.464091 11.4233 0.464091 11.4233C0.464091 11.4233 2.79042 12.2209 4.78473 12.8191C6.77876 13.4173 7.84227 12.7527 7.84227 12.7527L17.2145 6.43808C20.538 4.1781 19.7404 6.03916 18.9426 6.83699C17.2145 8.56536 14.3563 11.2903 11.9633 13.484C10.8998 14.4145 11.4314 15.212 11.897 15.611C13.625 17.0734 18.3446 20.0646 18.6103 20.2639C20.0144 21.258 22.7765 22.6889 23.1966 19.6657L24.8583 9.22995C25.3902 5.70714 25.9218 2.45001 25.9882 1.51948C26.1878 -0.740782 23.7948 0.189749 23.7948 0.189749Z" fill="#D6D6D6"/>
</svg>
