<svg width="28" height="28" viewBox="0 0 28 28" fill="none" xmlns="http://www.w3.org/2000/svg">
<path fill-rule="evenodd" clip-rule="evenodd" d="M9.70667 0H18.2933C26.1333 0 28 1.86667 28 9.70667V18.2933C28 26.1333 26.1333 28 18.2933 28H9.70667C1.86667 28 0 26.1333 0 18.2933V9.70667C0 1.86667 1.86667 0 9.70667 0Z" fill="#2787F5"/>
<path fill-rule="evenodd" clip-rule="evenodd" d="M22.9294 9.64697C23.0591 9.21437 22.9294 8.89648 22.312 8.89648H20.2703C19.7512 8.89648 19.5119 9.17109 19.3821 9.4739C19.3821 9.4739 18.3438 12.0046 16.873 13.6485C16.3971 14.1243 16.1808 14.2757 15.9212 14.2757C15.7915 14.2757 15.6036 14.1243 15.6036 13.6918V9.64698C15.6036 9.12785 15.453 8.89648 15.0203 8.89648H11.812C11.4876 8.89648 11.2925 9.13742 11.2925 9.36577C11.2925 9.8579 12.0279 9.97139 12.1037 11.3557V14.3623C12.1037 15.0215 11.9846 15.141 11.725 15.141C11.0329 15.141 9.34929 12.599 8.35074 9.69022C8.15505 9.12486 7.95878 8.89648 7.43699 8.89648H5.39532C4.81199 8.89648 4.69531 9.17109 4.69531 9.4739C4.69531 10.0147 5.38748 12.6968 7.91817 16.2441C9.60529 18.6666 11.9823 19.9798 14.1453 19.9798C15.4431 19.9798 15.6037 19.6882 15.6037 19.1858V17.3548C15.6037 16.7715 15.7266 16.6551 16.1376 16.6551C16.4404 16.6551 16.9595 16.8065 18.1708 17.9745C19.5551 19.3588 19.7833 19.9798 20.562 19.9798H22.6037C23.187 19.9798 23.4787 19.6882 23.3104 19.1126C23.1263 18.5389 22.4653 17.7066 21.5883 16.7199C21.1125 16.1576 20.3987 15.552 20.1824 15.2491C19.8796 14.8598 19.9661 14.6867 20.1824 14.3407C20.1824 14.3407 22.6698 10.8366 22.9294 9.64697V9.64697Z" fill="white"/>
</svg>
