<svg width="40" height="28" viewBox="0 0 40 28" fill="none" xmlns="http://www.w3.org/2000/svg">
<path d="M39.0983 4.38462C38.8689 3.53712 38.4216 2.76448 37.8008 2.14366C37.1799 1.52284 36.4073 1.07548 35.5598 0.846154C32.4572 0 19.9701 0 19.9701 0C19.9701 0 7.48289 0.025641 4.38032 0.871795C3.53282 1.10112 2.76019 1.54848 2.13937 2.1693C1.51854 2.79013 1.07119 3.56276 0.841861 4.41026C-0.0966006 9.92308 -0.460703 18.3231 0.867502 23.6154C1.09683 24.4629 1.54418 25.2355 2.16501 25.8563C2.78583 26.4772 3.55847 26.9245 4.40596 27.1538C7.50853 28 19.9957 28 19.9957 28C19.9957 28 32.4829 28 35.5855 27.1538C36.433 26.9245 37.2056 26.4772 37.8264 25.8563C38.4472 25.2355 38.8946 24.4629 39.1239 23.6154C40.1137 18.0949 40.4188 9.7 39.0983 4.38462Z" fill="#FF0000"/>
<path d="M15.9961 20L26.3551 14L15.9961 8V20Z" fill="white"/>
</svg>
